<svg width="33" height="32" viewBox="0 0 33 32" fill="none" xmlns="http://www.w3.org/2000/svg">
<path fill-rule="evenodd" clip-rule="evenodd" d="M9 14C9 13.4477 9.44772 13 10 13H23C23.5523 13 24 13.4477 24 14C24 14.5523 23.5523 15 23 15H10C9.44772 15 9 14.5523 9 14Z" fill="white"/>
<path fill-rule="evenodd" clip-rule="evenodd" d="M9 18C9 17.4477 9.44772 17 10 17H23C23.5523 17 24 17.4477 24 18C24 18.5523 23.5523 19 23 19H10C9.44772 19 9 18.5523 9 18Z" fill="white"/>
<path fill-rule="evenodd" clip-rule="evenodd" d="M4.08579 6.58579C4.46086 6.21071 4.96957 6 5.5 6H27.5C28.0304 6 28.5391 6.21071 28.9142 6.58579C29.2893 6.96086 29.5 7.46957 29.5 8V27C29.5 27.3466 29.3205 27.6684 29.0257 27.8507C28.7309 28.0329 28.3628 28.0494 28.0528 27.8944L24.5 26.118L20.9472 27.8944C20.6657 28.0352 20.3343 28.0352 20.0528 27.8944L16.5 26.118L12.9472 27.8944C12.6657 28.0352 12.3343 28.0352 12.0528 27.8944L8.5 26.118L4.94721 27.8944C4.63723 28.0494 4.26909 28.0329 3.97427 27.8507C3.67945 27.6684 3.5 27.3466 3.5 27V8C3.5 7.46957 3.71071 6.96086 4.08579 6.58579ZM27.5 8L5.5 8L5.5 25.382L8.05279 24.1056C8.33431 23.9648 8.66569 23.9648 8.94721 24.1056L12.5 25.882L16.0528 24.1056C16.3343 23.9648 16.6657 23.9648 16.9472 24.1056L20.5 25.882L24.0528 24.1056C24.3343 23.9648 24.6657 23.9648 24.9472 24.1056L27.5 25.382V8Z" fill="white"/>
</svg>
